<svg width="14" height="14" viewBox="0 0 14 14" fill="none" xmlns="http://www.w3.org/2000/svg">
<path d="M13.1318 3.46886C13.0981 3.40321 13.0493 3.34646 12.9894 3.30324C12.9296 3.26001 12.8604 3.23153 12.7875 3.2201C12.7145 3.20868 12.6399 3.21465 12.5698 3.23751C12.4996 3.26037 12.4358 3.29949 12.3836 3.35167L10.5836 5.15284C10.4952 5.23992 10.3761 5.28873 10.2521 5.28873C10.128 5.28873 10.0089 5.23992 9.92058 5.15284L9.14245 4.37354C9.09891 4.33002 9.06438 4.27834 9.04081 4.22146C9.01725 4.16458 9.00512 4.10362 9.00512 4.04205C9.00512 3.98048 9.01725 3.91952 9.04081 3.86264C9.06438 3.80576 9.09891 3.75409 9.14245 3.71056L10.9348 1.91788C10.9886 1.86416 11.0284 1.79818 11.051 1.72562C11.0736 1.65307 11.0782 1.57611 11.0644 1.50139C11.0506 1.42667 11.0189 1.35642 10.9719 1.29668C10.9249 1.23695 10.8642 1.18953 10.7948 1.15851V1.15851C9.44099 0.553233 7.75114 0.869053 6.68562 1.92667C5.78034 2.8255 5.51052 4.22999 5.94587 5.78009C5.96934 5.86275 5.96948 5.95029 5.94626 6.03303C5.92304 6.11576 5.87738 6.19046 5.81433 6.24884L0.936987 10.7034C0.74698 10.874 0.593719 11.0815 0.486554 11.3133C0.379389 11.5451 0.320566 11.7963 0.313673 12.0516C0.306781 12.3068 0.351963 12.5608 0.446464 12.798C0.540965 13.0353 0.682804 13.2507 0.863328 13.4313C1.04385 13.612 1.25928 13.7539 1.49646 13.8485C1.73365 13.9431 1.98762 13.9884 2.24288 13.9816C2.49815 13.9748 2.74936 13.9161 2.98119 13.8091C3.21301 13.702 3.4206 13.5488 3.59128 13.3589L8.09362 8.47071C8.15117 8.40847 8.2246 8.36311 8.30601 8.33952C8.38743 8.31593 8.47373 8.31499 8.55564 8.33682C8.99695 8.45774 9.45217 8.52048 9.90974 8.52345C10.8883 8.52345 11.7469 8.20675 12.3663 7.59649C13.5133 6.46651 13.6882 4.54991 13.1318 3.46886ZM2.29021 13.0381C2.09726 13.0592 1.90253 13.0198 1.73289 12.9255C1.56326 12.8312 1.42708 12.6865 1.34315 12.5115C1.25923 12.3365 1.23169 12.1397 1.26434 11.9484C1.297 11.7571 1.38823 11.5806 1.52545 11.4433C1.66268 11.3061 1.83912 11.2148 2.03044 11.182C2.22176 11.1493 2.41851 11.1768 2.59356 11.2607C2.7686 11.3445 2.9133 11.4806 3.00768 11.6503C3.10206 11.8199 3.14148 12.0146 3.12048 12.2075C3.09738 12.4198 3.00249 12.6179 2.85151 12.7689C2.70053 12.92 2.50251 13.0149 2.29021 13.0381V13.0381Z" fill="#5C5C5D"/>
</svg>
