<svg width="16" height="16" viewBox="0 0 16 16" fill="none" xmlns="http://www.w3.org/2000/svg">
<path d="M1.3125 11.9528C1.3125 12.3879 1.48535 12.8052 1.79303 13.1129C2.1007 13.4205 2.518 13.5934 2.95312 13.5934H12.7969C13.232 13.5934 13.6493 13.4205 13.957 13.1129C14.2646 12.8052 14.4375 12.3879 14.4375 11.9528V7.44104H1.3125V11.9528ZM3.24609 9.7262C3.24609 9.4931 3.33869 9.26954 3.50352 9.10472C3.66835 8.93989 3.8919 8.84729 4.125 8.84729H5.53125C5.76435 8.84729 5.9879 8.93989 6.15273 9.10472C6.31756 9.26954 6.41015 9.4931 6.41015 9.7262V10.3121C6.41015 10.5452 6.31756 10.7688 6.15273 10.9336C5.9879 11.0984 5.76435 11.191 5.53125 11.191H4.125C3.8919 11.191 3.66835 11.0984 3.50352 10.9336C3.33869 10.7688 3.24609 10.5452 3.24609 10.3121V9.7262Z" fill="#5C5C5D"/>
<path d="M12.7969 3.2804H2.95312C2.518 3.2804 2.1007 3.45325 1.79303 3.76092C1.48535 4.0686 1.3125 4.4859 1.3125 4.92102V5.68274H14.4375V4.92102C14.4375 4.4859 14.2646 4.0686 13.957 3.76092C13.6493 3.45325 13.232 3.2804 12.7969 3.2804Z" fill="#5C5C5D"/>
</svg>
