<svg width="24" height="16" viewBox="0 0 24 16" fill="none" xmlns="http://www.w3.org/2000/svg">
<g clip-path="url(#clip0_2481_91)">
<path d="M5.04687 14.9691H3.60937C3.32344 14.9691 3.04921 14.895 2.84703 14.7632C2.64484 14.6313 2.53125 14.4525 2.53125 14.266V10.0472C2.53125 9.86076 2.64484 9.68192 2.84703 9.55006C3.04921 9.4182 3.32344 9.34412 3.60937 9.34412H5.04687C5.33281 9.34412 5.60704 9.4182 5.80922 9.55006C6.01141 9.68192 6.125 9.86076 6.125 10.0472V14.266C6.125 14.4525 6.01141 14.6313 5.80922 14.7632C5.60704 14.895 5.33281 14.9691 5.04687 14.9691V14.9691Z" fill="#5C5C5D"/>
<path d="M15.1094 14.9683H13.6719C13.3859 14.9683 13.1117 14.8942 12.9095 14.7623C12.7073 14.6305 12.5938 14.4516 12.5938 14.2651V7.23389C12.5938 7.04741 12.7073 6.86856 12.9095 6.7367C13.1117 6.60484 13.3859 6.53076 13.6719 6.53076H15.1094C15.3953 6.53076 15.6695 6.60484 15.8717 6.7367C16.0739 6.86856 16.1875 7.04741 16.1875 7.23389V14.2651C16.1875 14.4516 16.0739 14.6305 15.8717 14.7623C15.6695 14.8942 15.3953 14.9683 15.1094 14.9683V14.9683Z" fill="#5C5C5D"/>
<path d="M20.1406 14.9687H18.7031C18.4172 14.9687 18.143 14.8947 17.9408 14.7628C17.7386 14.6309 17.625 14.4521 17.625 14.2656V3.95312C17.625 3.76664 17.7386 3.5878 17.9408 3.45594C18.143 3.32408 18.4172 3.25 18.7031 3.25H20.1406C20.4266 3.25 20.7008 3.32408 20.903 3.45594C21.1052 3.5878 21.2188 3.76664 21.2188 3.95312V14.2656C21.2188 14.4521 21.1052 14.6309 20.903 14.7628C20.7008 14.8947 20.4266 14.9687 20.1406 14.9687V14.9687Z" fill="#5C5C5D"/>
<path d="M10.0781 14.9685H8.64062C8.35469 14.9685 8.08046 14.8944 7.87828 14.7626C7.67609 14.6307 7.5625 14.4519 7.5625 14.2654V1.60913C7.5625 1.42265 7.67609 1.24381 7.87828 1.11195C8.08046 0.980085 8.35469 0.906006 8.64062 0.906006H10.0781C10.3641 0.906006 10.6383 0.980085 10.8405 1.11195C11.0427 1.24381 11.1562 1.42265 11.1562 1.60913V14.2654C11.1562 14.4519 11.0427 14.6307 10.8405 14.7626C10.6383 14.8944 10.3641 14.9685 10.0781 14.9685V14.9685Z" fill="#5C5C5D"/>
</g>
<defs>
<clipPath id="clip0_2481_91">
<rect width="23" height="15" fill="white" transform="translate(0.375 0.4375)"/>
</clipPath>
</defs>
</svg>
