<svg width="147" height="33" viewBox="0 0 147 33" fill="none" xmlns="http://www.w3.org/2000/svg">
<path d="M128.887 21.2318C128.887 23.3468 126.794 24.3506 126.794 24.3506C123.495 25.9055 119.3 24.7995 118.162 24.4476C117.984 24.392 117.866 24.2277 117.866 24.0414V21.8553C117.866 21.5539 118.168 21.3547 118.451 21.466C120.574 22.3003 123.495 22.0972 124.166 21.7751C125.04 21.3638 124.544 20.7545 124.544 20.7545C124.158 20.2668 121.861 19.9615 121.861 19.9615C119.725 19.6136 118.864 18.7417 118.864 18.7417C117.832 17.9113 117.832 16.4327 117.832 16.4327C117.632 13.4743 119.815 12.6064 119.815 12.6064C123.059 11.2546 126.697 12.1873 127.741 12.5094C127.92 12.565 128.038 12.7293 128.038 12.9155V15.2504C128.017 15.4755 127.825 15.6488 127.592 15.6488C127.562 15.6488 127.532 15.6449 127.503 15.6398C127.473 15.6307 127.443 15.6229 127.417 15.6139C125.414 15.0331 123.694 14.9826 123.694 14.9826C120.994 14.927 121.524 16.0925 122.063 16.3215C122.53 16.5168 125.384 17.0924 125.384 17.0924C127.4 17.4986 128.887 18.7572 128.887 21.2331V21.2318Z" fill="#2703A5"/>
<path d="M141.097 21.2318C141.097 23.3468 139.003 24.3506 139.003 24.3506C135.705 25.9055 131.51 24.7995 130.372 24.4476C130.193 24.392 130.075 24.2277 130.075 24.0414V21.8553C130.075 21.5539 130.377 21.3547 130.661 21.466C132.784 22.3003 135.705 22.0972 136.375 21.7751C137.25 21.3638 136.754 20.7545 136.754 20.7545C136.367 20.2668 134.071 19.9615 134.071 19.9615C131.935 19.6136 131.073 18.7417 131.073 18.7417C130.042 17.9113 130.042 16.4327 130.042 16.4327C129.842 13.4743 132.025 12.6064 132.025 12.6064C135.268 11.2546 138.906 12.1873 139.951 12.5094C140.13 12.565 140.248 12.7293 140.248 12.9155V15.2504C140.227 15.4755 140.035 15.6488 139.802 15.6488C139.772 15.6488 139.742 15.6449 139.712 15.6398C139.683 15.6307 139.653 15.6229 139.627 15.6139C137.623 15.0331 135.903 14.9826 135.903 14.9826C133.204 14.927 133.734 16.0925 134.273 16.3215C134.74 16.5168 137.593 17.0924 137.593 17.0924C139.61 17.4986 141.097 18.7572 141.097 21.2331V21.2318Z" fill="#2703A5"/>
<path d="M113.431 12.2662C109.148 10.9959 105.336 13.2208 104.863 17.2334C104.395 21.2461 105.738 24.5007 110.043 25.0233C112.477 25.3182 114.569 24.8926 115.92 24.4696C116.095 24.4153 116.213 24.2497 116.213 24.0673V21.779C116.213 21.4957 115.942 21.2913 115.67 21.3728C114.087 21.8437 109.545 22.9005 108.986 19.7481H116.736C116.736 19.7481 117.721 13.5274 113.43 12.2675M112.958 17.2334H108.987C108.987 17.2334 109.129 15.2634 111.128 15.2634C113.126 15.2634 112.959 17.2334 112.959 17.2334" fill="#2703A5"/>
<path d="M103.673 12.7189V24.3337C103.673 24.5666 103.484 24.7541 103.252 24.7541H100.435C100.202 24.7541 100.014 24.5653 100.014 24.3337V23.7814C100.014 23.7814 95.1744 26.732 92.572 23.806C91.6661 22.7866 91.5974 19.8917 91.5974 19.8917V12.7189C91.5974 12.486 91.7866 12.2985 92.0186 12.2985H95.3597C95.593 12.2985 95.7809 12.4873 95.7809 12.7189V19.3923C95.7809 19.3923 95.6396 21.409 97.3503 21.409C97.3503 21.409 98.5063 21.5539 99.5133 20.5074V12.7189C99.5133 12.486 99.7025 12.2985 99.9345 12.2985H103.251C103.484 12.2985 103.672 12.4873 103.672 12.7189H103.673Z" fill="#2703A5"/>
<path d="M145.951 12.2972H142.639C142.405 12.2972 142.215 12.4866 142.215 12.7202V24.3312C142.215 24.5648 142.405 24.7542 142.639 24.7542H145.951C146.185 24.7542 146.375 24.5648 146.375 24.3312V12.7202C146.375 12.4866 146.185 12.2972 145.951 12.2972Z" fill="#2703A5"/>
<path d="M74.9062 8.37124L72.3712 18.7016L69.6704 8.36607C69.6211 8.1785 69.4526 8.04785 69.2582 8.04785H66.2528C66.061 8.04785 65.8925 8.17591 65.842 8.36219L63.0504 18.6305L60.4921 8.37124C60.4455 8.18109 60.2744 8.04914 60.0787 8.04914H56.262C55.9743 8.04914 55.7695 8.32855 55.8551 8.60149L60.8187 24.3596C60.8745 24.5369 61.039 24.6572 61.2257 24.6572H64.371C64.5615 24.6572 64.7287 24.5317 64.7806 24.348L67.6382 14.3346L70.4972 24.348C70.549 24.5304 70.7162 24.6572 70.9067 24.6572H74.0741C74.2608 24.6572 74.4253 24.5369 74.4811 24.3583L79.4201 8.6002C79.5056 8.32597 79.3009 8.04785 79.0132 8.04785H75.3183C75.1226 8.04785 74.9515 8.18109 74.9049 8.37253L74.9062 8.37124Z" fill="#2703A5"/>
<path d="M90.6045 18.8736C90.6045 22.3054 87.8155 25.0814 84.385 25.0814C83.4286 25.0814 82.5305 24.868 81.7244 24.4838C81.7892 24.4553 81.8604 24.4191 81.9317 24.3764C83.2938 23.5938 84.8633 22.3468 86.3614 20.8528C87.5745 19.642 89.1141 17.8556 90.0135 16.2257C90.392 17.0303 90.6058 17.9267 90.6058 18.8736H90.6045Z" fill="#2703A5"/>
<path d="M90.3259 12.9362C89.6909 12.3101 88.5932 12.4097 87.038 13.257C86.9732 13.2932 86.9019 13.3282 86.8306 13.3708C85.4685 14.1534 83.8991 15.4069 82.4009 16.8945C80.9027 18.3898 79.6482 19.9628 78.8706 21.3223C78.8278 21.3935 78.7916 21.4582 78.7566 21.5216C77.9077 23.0738 77.8014 24.1772 78.4352 24.8111C78.706 25.0814 79.0624 25.2173 79.5057 25.2173C80.0979 25.2173 80.8392 24.9754 81.7244 24.4838C81.7892 24.4553 81.8605 24.4191 81.9317 24.3764C83.2938 23.5938 84.8633 22.3468 86.3615 20.8528C87.5745 19.642 89.1141 17.8556 90.0136 16.2257C90.7406 14.8804 91.0335 13.6412 90.3272 12.9362H90.3259ZM85.3545 19.8425C83.2576 21.9355 81.4172 23.1385 80.3325 23.5874C79.9191 23.7659 79.6197 23.8293 79.4551 23.7943C79.4188 23.6378 79.4836 23.3312 79.6625 22.9186C80.1187 21.8437 81.3175 19.9926 83.4066 17.9061C85.5035 15.8131 87.3438 14.6101 88.4286 14.1612C88.842 13.9827 89.1414 13.9193 89.3059 13.9542C89.3124 13.9827 89.3124 14.0111 89.3124 14.0538C89.3124 14.2246 89.2411 14.4885 89.0986 14.83C88.6424 15.9049 87.4436 17.756 85.3545 19.8425Z" fill="#2703A5"/>
<path d="M78.2512 21.1103C78.1851 21.1077 78.1151 21.0857 78.0866 21.0275C77.6784 20.1724 77.4697 19.254 77.4697 18.2955C77.4697 14.7744 80.3429 11.9092 83.8758 11.9092C84.8361 11.9092 85.7576 12.1161 86.6129 12.5249C86.6752 12.5547 86.714 12.6155 86.714 12.684C86.714 12.7526 86.6765 12.8147 86.6155 12.8444C85.19 13.6542 83.5777 14.9361 82.0394 16.4703C80.5166 17.9889 79.2323 19.5994 78.4223 21.0042C78.3899 21.0598 78.3199 21.1116 78.2538 21.1116H78.2499L78.2512 21.1103Z" fill="#2703A5"/>
<path d="M45.1969 0.6875H3.79642C1.90686 0.6875 0.375 2.2139 0.375 4.09991V29.2558C0.375 31.1392 1.90686 32.6682 3.79642 32.6682H45.1969C47.0864 32.6682 48.6183 31.1392 48.6183 29.2558V4.09991C48.6183 2.2139 47.0864 0.6875 45.1969 0.6875ZM24.8472 17.2257L19.3587 26.9571C18.4126 28.6504 15.8893 28.3697 15.3359 26.5121L11.3365 13.0371H7.32411C6.12661 13.0022 5.16369 12.0165 5.16369 10.807C5.16369 9.59754 6.12532 8.61702 7.32411 8.58209H12.9215C13.9713 8.58209 14.8953 9.27544 15.1986 10.2779L18.1003 20.0624L20.9152 15.0266C21.5411 13.9051 23.0536 13.561 24.0709 14.2091C25.0909 14.8597 25.4382 16.174 24.8472 17.2244V17.2257ZM43.5549 8.64936L35.0609 23.6689C34.1123 25.3621 31.589 25.0814 31.0382 23.2252L27.0387 9.75018H23.0238C21.8289 9.71525 20.8659 8.72956 20.8659 7.52008C20.8659 6.3106 21.8276 5.33008 23.0238 5.29516H28.6237C29.6735 5.29516 30.5975 5.98851 30.9008 6.99101L33.8025 16.7755L39.5723 6.44901C39.9702 5.73497 41.1041 4.81137 42.6412 5.54482C43.6054 6.00532 44.2132 7.48645 43.5549 8.65065V8.64936Z" fill="#2703A5"/>
</svg>
