<svg width="49" height="33" viewBox="0 0 49 33" fill="none" xmlns="http://www.w3.org/2000/svg">
<path d="M45.1969 0.6875H3.79642C1.90686 0.6875 0.375 2.2139 0.375 4.09991V29.2558C0.375 31.1392 1.90686 32.6682 3.79642 32.6682H45.1969C47.0864 32.6682 48.6183 31.1392 48.6183 29.2558V4.09991C48.6183 2.2139 47.0864 0.6875 45.1969 0.6875ZM24.8472 17.2257L19.3587 26.9571C18.4126 28.6504 15.8893 28.3697 15.3359 26.5121L11.3365 13.0371H7.32411C6.12661 13.0022 5.16369 12.0165 5.16369 10.807C5.16369 9.59754 6.12532 8.61702 7.32411 8.58209H12.9215C13.9713 8.58209 14.8953 9.27544 15.1986 10.2779L18.1003 20.0624L20.9152 15.0266C21.5411 13.9051 23.0536 13.561 24.0709 14.2091C25.0909 14.8597 25.4382 16.174 24.8472 17.2244V17.2257ZM43.5549 8.64936L35.0609 23.6689C34.1123 25.3621 31.589 25.0814 31.0382 23.2252L27.0387 9.75018H23.0238C21.8289 9.71525 20.8659 8.72956 20.8659 7.52008C20.8659 6.3106 21.8276 5.33008 23.0238 5.29516H28.6237C29.6735 5.29516 30.5975 5.98851 30.9008 6.99101L33.8025 16.7755L39.5723 6.44901C39.9702 5.73497 41.1041 4.81137 42.6412 5.54482C43.6054 6.00532 44.2132 7.48645 43.5549 8.65065V8.64936Z" fill="#2703A5"/>
</svg>
